<?xml version="1.0" encoding="UTF-8"?>
<svg xmlns="http://www.w3.org/2000/svg" xmlns:xlink="http://www.w3.org/1999/xlink" viewBox="0 0 162 162">
  <defs>
    <style>
      .cls-1 {
        fill: url(#linear-gradient);
      }

      .cls-2 {
        fill: #b8babc;
      }

      .cls-3 {
        fill: #8e8e8e;
      }

      .cls-4 {
        fill: #acacad;
      }

      .cls-5 {
        fill: #d9dadb;
      }

      .cls-6 {
        opacity: .07;
      }

      .cls-6, .cls-7, .cls-8 {
        fill: none;
      }

      .cls-7 {
        stroke: #000;
        stroke-miterlimit: 10;
        stroke-width: .5px;
      }

      .cls-8 {
        opacity: .18;
      }
    </style>
    <linearGradient id="linear-gradient" x1="81" y1=".09" x2="81" y2="161.91" gradientUnits="userSpaceOnUse">
      <stop offset="0" stop-color="#4a4949"/>
      <stop offset="1" stop-color="#1e1e1e"/>
    </linearGradient>
  </defs>
  <g id="Layer_4" data-name="Layer 4">
    <g class="cls-6">
      <rect class="cls-1" x=".09" y=".09" width="161.82" height="161.82" rx="35.34" ry="35.34"/>
    </g>
  </g>
  <g id="Layer_3" data-name="Layer 3">
    <g class="cls-8">
      <line class="cls-7" x1="11.29" y1="11.19" x2="151.41" y2="151.41"/>
      <line class="cls-7" x1="150.7" y1="11.3" x2="10.5" y2="151.61"/>
      <ellipse class="cls-7" cx="80.95" cy="80.89" rx="70.93" ry="70.98"/>
      <line class="cls-7" x1="40.27" x2="40.27" y2="162"/>
      <line class="cls-7" x1="10.23" y1="11.19" x2="10.23" y2="151.34"/>
      <line class="cls-7" x1="81" x2="81" y2="162"/>
      <line class="cls-7" x1="151.88" y1="10.77" x2="151.88" y2="151.2"/>
      <line class="cls-7" x1="52.34" x2="52.34" y2="162"/>
      <line class="cls-7" x1="109.55" x2="109.55" y2="162"/>
      <line class="cls-7" x1="121.62" x2="121.62" y2="162"/>
      <line class="cls-7" y1="121.81" x2="161.89" y2="121.81"/>
      <line class="cls-7" y1="52.27" x2="161.89" y2="52.27"/>
      <line class="cls-7" y1="109.73" x2="161.89" y2="109.73"/>
      <line class="cls-7" x1="10.5" y1="151.87" x2="151.48" y2="151.87"/>
      <line class="cls-7" x1="12.07" y1="10.13" x2="151.88" y2="10.13"/>
      <line class="cls-7" y1="81" x2="161.89" y2="81"/>
      <line class="cls-7" y1="40.19" x2="161.89" y2="40.19"/>
      <ellipse class="cls-7" cx="80.95" cy="81" rx="40.67" ry="40.7"/>
      <ellipse class="cls-7" cx="80.95" cy="80.89" rx="28.61" ry="28.63"/>
    </g>
  </g>
  <g id="Layer_2" data-name="Layer 2">
    <path class="cls-3" d="m127.74,4.01c16.71,0,30.31,13.6,30.31,30.31v93.36c0,16.71-13.6,30.31-30.31,30.31H34.37c-16.71,0-30.31-13.6-30.31-30.31V34.32c0-16.71,13.6-30.31,30.31-30.31h93.36m0-4.01H34.37C15.42,0,.05,15.36.05,34.32v93.36c0,18.95,15.36,34.32,34.32,34.32h93.36c18.95,0,34.32-15.36,34.32-34.32V34.32c0-18.95-15.36-34.32-34.32-34.32h0Z"/>
    <g>
      <g>
        <path class="cls-5" d="m65.41,74.96h-11.74c-2.7,0-4.89,2.19-4.89,4.89v21.46c0,2.7,2.19,4.89,4.89,4.89h16.63v-26.36c0-2.7-2.19-4.89-4.89-4.89Z"/>
        <path class="cls-3" d="m65.41,74.96v-.58h-11.74c-3.02,0-5.47,2.45-5.47,5.47v21.46c0,3.02,2.45,5.47,5.47,5.47h17.21v-26.93c0-3.02-2.45-5.47-5.47-5.47v1.15c1.19,0,2.27.48,3.05,1.26.78.78,1.26,1.86,1.26,3.05v25.78h-16.06c-1.19,0-2.27-.48-3.05-1.26-.78-.78-1.26-1.86-1.26-3.05v-21.46c0-1.19.48-2.27,1.26-3.05.78-.78,1.86-1.26,3.05-1.26h11.74v-.58Z"/>
      </g>
      <g>
        <path class="cls-2" d="m86.15,106.21h-15.84v-46.28c0-2.7,2.19-4.89,4.89-4.89h11.74c2.7,0,4.89,2.19,4.89,4.89v44.38"/>
        <path class="cls-3" d="m86.15,105.64h-15.27v-45.7c0-1.19.48-2.27,1.26-3.05.78-.78,1.86-1.26,3.05-1.26h11.74c1.19,0,2.27.48,3.05,1.26.78.78,1.26,1.86,1.26,3.05v44.38h1.15v-44.38c0-3.02-2.45-5.47-5.47-5.47h-11.74c-3.02,0-5.47,2.45-5.47,5.47v46.85h16.42v-1.15h0Z"/>
      </g>
      <g>
        <path class="cls-4" d="m91.83,104.31v-58.43c0-2.7,2.19-4.89,4.89-4.89h11.74c2.7,0,4.89,2.19,4.89,4.89v51.62"/>
        <path class="cls-3" d="m92.4,104.31v-58.43c0-1.19.48-2.27,1.26-3.05.78-.78,1.86-1.26,3.05-1.26h11.74c1.19,0,2.27.48,3.05,1.26.78.78,1.26,1.86,1.26,3.05v51.62h1.15v-51.62c0-3.02-2.45-5.47-5.47-5.47h-11.74c-3.02,0-5.47,2.45-5.47,5.47v58.43h1.15,0Z"/>
      </g>
      <g id="disk">
        <path class="cls-5" d="m32.81,121.01c-8.99,0-14.59-1.62-15.36-4.46-.75-2.78,2.94-6.79,10.14-11,5.06-2.96,12.18-6.17,20.62-9.28v.26c-4.43,1.89-7.98,3.72-10.54,5.44-3.93,2.63-5.62,4.97-5.02,6.95.74,2.44,4.99,3.73,12.29,3.73,8.98,0,21.89-1.91,37.32-5.53,29.43-6.9,49.12-15.65,48.98-21.79-.03-1.34-1.04-3.12-5.67-3.99-1.89-.35-4.29-.53-7.14-.53-1.42,0-2.97.04-4.61.13v-.09c5.07-.51,9.65-.77,13.62-.77,2.72,0,5.16.12,7.24.37,6.19.73,9.82,2.59,9.97,5.1.19,3.32-5.18,7.86-14.73,12.46-11.39,5.49-28.38,10.95-49.13,15.81-20.06,4.69-36.65,7.18-47.97,7.18Z"/>
        <path class="cls-3" d="m127.43,80.68c2.7,0,5.12.12,7.18.36,5.8.68,9.33,2.39,9.46,4.56.25,4.38-12.69,15.8-63.42,27.67-20.02,4.68-36.56,7.16-47.84,7.16-8.59,0-14.12-1.51-14.81-4.03-.79-2.91,4.58-7.25,9.87-10.35,2.89-1.69,6.45-3.46,10.54-5.24-.37.23-.73.46-1.07.69-4.17,2.79-5.93,5.35-5.25,7.6.84,2.75,5.16,4.14,12.84,4.14,9.02,0,21.98-1.92,37.45-5.54,30.17-7.07,49.57-15.85,49.42-22.37-.03-1.55-1.13-3.6-6.14-4.54-.17-.03-.34-.06-.52-.09.78-.02,1.54-.03,2.28-.03m0-1.15c-4.24,0-9.06.3-14.2.83v1.22c1.84-.11,3.57-.17,5.19-.17,2.74,0,5.13.17,7.03.52,14.09,2.65-.47,14.61-43.33,24.65-16.59,3.89-29,5.51-37.19,5.51-12.91,0-15.3-4.04-6.95-9.63,2.69-1.8,6.42-3.68,10.8-5.54v-1.46c-8.39,3.06-15.94,6.36-21.49,9.61-14.93,8.74-14.71,16.53,5.52,16.53,10.46,0,26.27-2.08,48.1-7.19,64.12-15,76.48-31.84,53.83-34.5-2.16-.25-4.62-.37-7.31-.37h0Z"/>
      </g>
    </g>
  </g>
</svg>