<svg width="128" height="128" viewBox="0 0 128 128" fill="none" xmlns="http://www.w3.org/2000/svg">
<path d="M100.883 0H27.117C12.1407 0 0 12.1407 0 27.117V100.883C0 115.859 12.1407 128 27.117 128H100.883C115.859 128 128 115.859 128 100.883V27.117C128 12.1407 115.859 0 100.883 0Z" fill="white"/>
<g opacity="0.18">
<path d="M10.2479 10.2162L117.752 117.791" stroke="black" stroke-width="0.5" stroke-miterlimit="10"/>
<path d="M117.744 10.2084L10.2479 117.792" stroke="black" stroke-width="0.5" stroke-miterlimit="10"/>
<path d="M63.9131 119.996C94.865 119.996 119.957 94.8868 119.957 63.913C119.957 32.9393 94.865 7.83008 63.9131 7.83008C32.9611 7.83008 7.86963 32.9393 7.86963 63.913C7.86963 94.8868 32.9611 119.996 63.9131 119.996Z" stroke="black" stroke-width="0.5" stroke-miterlimit="10"/>
<path d="M31.7788 3.23157V124.753" stroke="black" stroke-width="0.5" stroke-miterlimit="10"/>
<path d="M8.03555 12.634V115.263" stroke="black" stroke-width="0.5" stroke-miterlimit="10"/>
<path d="M63.9605 3.23157V124.753" stroke="black" stroke-width="0.5" stroke-miterlimit="10"/>
<path d="M119.964 12.4602V115.35" stroke="black" stroke-width="0.5" stroke-miterlimit="10"/>
<path d="M41.3156 3.23157V124.753" stroke="black" stroke-width="0.5" stroke-miterlimit="10"/>
<path d="M86.5185 3.23157V124.753" stroke="black" stroke-width="0.5" stroke-miterlimit="10"/>
<path d="M96.0553 3.23157V124.753" stroke="black" stroke-width="0.5" stroke-miterlimit="10"/>
<path d="M3.24741 96.2449H124.887" stroke="black" stroke-width="0.5" stroke-miterlimit="10"/>
<path d="M3.24741 41.2998H124.887" stroke="black" stroke-width="0.5" stroke-miterlimit="10"/>
<path d="M3.24741 86.7002H124.887" stroke="black" stroke-width="0.5" stroke-miterlimit="10"/>
<path d="M12.7289 119.996H115.295" stroke="black" stroke-width="0.5" stroke-miterlimit="10"/>
<path d="M12.7052 8.00391H115.263" stroke="black" stroke-width="0.5" stroke-miterlimit="10"/>
<path d="M3.24741 64H124.887" stroke="black" stroke-width="0.5" stroke-miterlimit="10"/>
<path d="M3.24741 31.755H124.887" stroke="black" stroke-width="0.5" stroke-miterlimit="10"/>
<path d="M63.9131 96.158C81.6604 96.158 96.0474 81.7603 96.0474 63.9999C96.0474 46.2396 81.6604 31.8419 63.9131 31.8419C46.1658 31.8419 31.7788 46.2396 31.7788 63.9999C31.7788 81.7603 46.1658 96.158 63.9131 96.158Z" stroke="black" stroke-width="0.5" stroke-miterlimit="10"/>
<path d="M63.9131 86.5343C76.3977 86.5343 86.5185 76.4065 86.5185 63.9131C86.5185 51.4197 76.3977 41.2919 63.9131 41.2919C51.4284 41.2919 41.3077 51.4197 41.3077 63.9131C41.3077 76.4065 51.4284 86.5343 63.9131 86.5343Z" stroke="black" stroke-width="0.5" stroke-miterlimit="10"/>
</g>
<path d="M51.6425 59.2276H42.3664C40.2331 59.2276 38.5027 60.958 38.5027 63.0913V80.0474C38.5027 82.1807 40.2331 83.9111 42.3664 83.9111H55.5062V63.0834C55.5062 60.9501 53.7758 59.2197 51.6425 59.2197V59.2276Z" fill="#D9DADB"/>
<path d="M51.6425 59.2277V58.7694H42.3664C39.9802 58.7694 38.0444 60.7052 38.0444 63.0914V80.0474C38.0444 82.4336 39.9802 84.3694 42.3664 84.3694H55.9644V63.0914C55.9644 60.7052 54.0286 58.7694 51.6425 58.7694V59.6781C52.5827 59.6781 53.436 60.0573 54.0523 60.6736C54.6686 61.2899 55.0479 62.1432 55.0479 63.0835V83.4529H42.3585C41.4183 83.4529 40.5649 83.0736 39.9486 82.4573C39.3323 81.841 38.9531 80.9877 38.9531 80.0474V63.0914C38.9531 62.1511 39.3323 61.2978 39.9486 60.6815C40.5649 60.0652 41.4183 59.686 42.3585 59.686H51.6346V59.2277H51.6425Z" fill="#757575"/>
<path d="M68.0217 83.919H55.5062V47.3521C55.5062 45.2188 57.2365 43.4884 59.3699 43.4884H68.6459C70.7793 43.4884 72.5096 45.2188 72.5096 47.3521V82.4178" fill="#B8BABC"/>
<path d="M68.0217 83.4687H55.9565V47.3601C55.9565 46.4198 56.3358 45.5665 56.9521 44.9502C57.5684 44.3339 58.4217 43.9546 59.362 43.9546H68.638C69.5783 43.9546 70.4316 44.3339 71.0479 44.9502C71.6642 45.5665 72.0435 46.4198 72.0435 47.3601V82.4257H72.9521V47.3601C72.9521 44.9739 71.0163 43.0381 68.6301 43.0381H59.3541C56.9679 43.0381 55.0321 44.9739 55.0321 47.3601V84.3773H68.0059V83.4687H68.0217Z" fill="#757575"/>
<path d="M72.5175 82.4178V36.2509C72.5175 34.1176 74.2479 32.3872 76.3812 32.3872H85.6573C87.7906 32.3872 89.521 34.1176 89.521 36.2509V77.0371" fill="#ACACAD"/>
<path d="M72.9679 82.4178V36.2509C72.9679 35.3107 73.3472 34.4574 73.9634 33.8411C74.5797 33.2248 75.4331 32.8455 76.3733 32.8455H85.6494C86.5896 32.8455 87.443 33.2248 88.0592 33.8411C88.6755 34.4574 89.0548 35.3107 89.0548 36.2509V77.0371H89.9634V36.2509C89.9634 33.8648 88.0276 31.929 85.6415 31.929H76.3654C73.9793 31.929 72.0434 33.8648 72.0434 36.2509V82.4178H72.9521H72.9679Z" fill="#757575"/>
<path d="M25.8844 95.6129C18.7812 95.6129 14.3565 94.3329 13.7481 92.089C13.1556 89.8925 16.0711 86.7241 21.76 83.3976C25.758 81.0589 31.3837 78.5226 38.0523 76.0653V76.2707C34.5521 77.7641 31.7472 79.21 29.7244 80.569C26.6193 82.647 25.2839 84.4959 25.758 86.0603C26.3427 87.9883 29.7007 89.0075 35.4686 89.0075C42.5639 89.0075 52.7644 87.4984 64.9561 84.6381C88.2094 79.1863 103.767 72.2727 103.656 67.4213C103.633 66.3626 102.835 64.9562 99.1763 64.2687C97.683 63.9922 95.7867 63.85 93.5348 63.85C92.4128 63.85 91.1881 63.8816 89.8923 63.9527V63.8816C93.8983 63.4786 97.517 63.2732 100.654 63.2732C102.803 63.2732 104.731 63.368 106.374 63.5655C111.265 64.1423 114.133 65.612 114.252 67.5952C114.402 70.2184 110.159 73.8055 102.613 77.4401C93.6138 81.7779 80.1896 86.092 63.7946 89.932C47.9447 93.6376 34.8365 95.605 25.8923 95.605L25.8844 95.6129Z" fill="#D9DADB"/>
<path d="M100.646 63.7472C102.779 63.7472 104.691 63.842 106.319 64.0317C110.902 64.569 113.691 65.9201 113.794 67.6346C113.991 71.0954 103.767 80.1186 63.6839 89.4974C47.8657 93.1951 34.797 95.1546 25.8844 95.1546C19.0973 95.1546 14.7279 93.9616 14.1827 91.9704C13.5585 89.6712 17.8015 86.2421 21.9812 83.7927C24.2647 82.4574 27.0775 81.0588 30.3091 79.6524C30.0168 79.8341 29.7323 80.0159 29.4637 80.1976C26.1689 82.4021 24.7783 84.4248 25.3156 86.2025C25.9793 88.3754 29.3926 89.4737 35.4607 89.4737C42.5877 89.4737 52.8277 87.9566 65.0509 85.0964C88.8889 79.5102 104.217 72.5729 104.099 67.4213C104.075 66.1966 103.206 64.5769 99.2474 63.8341C99.1131 63.8104 98.9788 63.7867 98.8365 63.763C99.4528 63.7472 100.053 63.7393 100.638 63.7393M100.638 62.8307C97.2879 62.8307 93.4795 63.0677 89.4183 63.4865V64.4504C90.8721 64.3635 92.239 64.3161 93.519 64.3161C95.684 64.3161 97.5723 64.4504 99.0736 64.727C110.206 66.8208 98.7022 76.2707 64.8375 84.2035C51.7294 87.2771 41.9239 88.5571 35.4528 88.5571C25.2523 88.5571 23.3639 85.365 29.9615 80.9482C32.0869 79.526 35.0341 78.0406 38.4948 76.5709V75.4174C31.8657 77.8351 25.9002 80.4425 21.5151 83.0104C9.71851 89.9161 9.89234 96.0712 25.8765 96.0712C34.1412 96.0712 46.6331 94.4277 63.8815 90.3902C114.544 78.5383 124.31 65.2327 106.414 63.1309C104.707 62.9334 102.763 62.8386 100.638 62.8386V62.8307Z" fill="#757575"/>
<path d="M100.883 3.1684C114.086 3.1684 124.832 13.9141 124.832 27.117V100.883C124.832 114.086 114.086 124.832 100.883 124.832H27.117C13.9141 124.832 3.1684 114.086 3.1684 100.883V27.117C3.1684 13.9141 13.9141 3.1684 27.117 3.1684H100.883ZM100.883 0H27.117C12.1363 0 0 12.1363 0 27.117V100.883C0 115.864 12.1363 128 27.117 128H100.883C115.856 128 128 115.864 128 100.883V27.117C128 12.1363 115.864 0 100.883 0Z" fill="#8E8E8E"/>
</svg>
