<svg width="110" height="130" viewBox="0 0 110 130" fill="none" xmlns="http://www.w3.org/2000/svg">
<path d="M92.0381 67.5527C91.5139 64.1741 91.2808 60.7372 91.2808 57.2421V49.2033C91.2808 29.6888 75.4363 13.8442 55.9218 13.8442H52.4849C32.9705 13.8442 17.1259 29.6888 17.1259 49.2033V57.2421C17.1259 64.6984 15.9026 72.0381 13.5142 79.0284C11.8249 83.9216 9.20358 88.407 5.99971 92.4846C3.61137 95.5137 5.7667 99.9992 9.66959 99.9992H102.757C104.97 99.9992 106.252 97.4361 104.854 95.6885C98.3876 87.4749 93.6109 77.8633 92.0381 67.4945V67.5527Z" stroke="#1A73E8" stroke-width="8" stroke-miterlimit="10" stroke-linecap="round"/>
<path d="M40.6595 112.465C40.6595 119.922 46.7178 125.98 54.174 125.98C61.6303 125.98 67.6885 119.922 67.6885 112.465" stroke="#1A73E8" stroke-width="8" stroke-miterlimit="10"/>
<path d="M54.1161 13.8446V4" stroke="#1A73E8" stroke-width="8" stroke-miterlimit="10" stroke-linecap="round"/>
</svg>
