<svg width="67" height="48" viewBox="0 0 67 48" fill="none" xmlns="http://www.w3.org/2000/svg">
<path d="M39.3192 7H43.8418C44.8816 7 45.7262 7.87046 45.7262 8.942V30.9526C45.7262 32.0242 44.8816 32.8946 43.8418 32.8946H37.4349V8.942C37.4349 7.87046 38.2795 7 39.3192 7Z" fill="#FEFEFE"/>
<path d="M31.0278 12.5796H35.5504C36.5902 12.5796 37.4348 13.45 37.4348 14.5216V32.8946H29.1435V14.5216C29.1435 13.45 29.9881 12.5796 31.0278 12.5796Z" fill="#FEFEFE"/>
<path d="M22.7366 20.4892H27.2592C28.2989 20.4892 29.1435 21.3597 29.1435 22.4312V32.8946H22.7366C21.6968 32.8946 20.8522 32.0242 20.8522 30.9526V22.4312C20.8522 21.3597 21.6968 20.4892 22.7366 20.4892Z" fill="#FEFEFE"/>
<path d="M53.9661 22.4501C51.839 22.1924 48.9442 22.2839 45.7261 22.6267V23.111C47.616 22.9958 49.2337 23.0317 50.388 23.2545C55.8166 24.3043 50.2084 29.0541 33.6963 33.0419C17.2255 37.0194 11.4405 35.0321 16.6914 31.4058C17.7275 30.6902 19.1639 29.9434 20.8513 29.207V28.6254C17.6194 29.8405 14.7118 31.1499 12.5746 32.4396C3.84632 37.7029 8.55582 42.0958 33.2291 36.1451C57.929 30.1889 62.6889 23.5056 53.9661 22.4501Z" fill="#fefefe"/>
</svg>
