<svg width="50" height="32" viewBox="0 0 50 32" fill="none" xmlns="http://www.w3.org/2000/svg">
<path d="M31.316 0H35.8386C36.8783 0 37.723 0.870455 37.723 1.942V23.9526C37.723 25.0242 36.8783 25.8946 35.8386 25.8946H29.4316V1.942C29.4316 0.870455 30.2763 0 31.316 0Z" fill="#0253AA"/>
<path d="M23.0246 5.57959H27.5472C28.587 5.57959 29.4316 6.45005 29.4316 7.52159V25.8946H21.1403V7.52159C21.1403 6.45005 21.9849 5.57959 23.0246 5.57959Z" fill="#007AFF"/>
<path d="M14.7333 13.4892H19.256C20.2957 13.4892 21.1403 14.3597 21.1403 15.4312V25.8946H14.7333C13.6936 25.8946 12.849 25.0242 12.849 23.9526V15.4312C12.849 14.3597 13.6936 13.4892 14.7333 13.4892Z" fill="#2FC0ED"/>
<path d="M45.9629 15.4501C43.8358 15.1924 40.941 15.2839 37.7229 15.6267V16.111C39.6127 15.9958 41.2305 16.0317 42.3847 16.2545C47.8133 17.3043 42.2052 22.0541 25.6931 26.0419C9.22223 30.0194 3.43727 28.0321 8.68816 24.4058C9.72424 23.6902 11.1606 22.9434 12.848 22.207V21.6254C9.61614 22.8405 6.70855 24.1499 4.57136 25.4396C-4.15691 30.7029 0.552583 35.0958 25.2259 29.1451C49.9258 23.1889 54.6857 16.5056 45.9629 15.4501Z" fill="#344767"/>
</svg>
