<svg width="143" height="33" viewBox="0 0 143 33" fill="none" xmlns="http://www.w3.org/2000/svg">
<path d="M10.6905 14.7859V20.0294C10.6905 20.1209 10.6199 20.1936 10.5311 20.1936H8.40396C8.3151 20.1936 8.24457 20.1209 8.24457 20.0294L8.31511 13.7993L8.24457 7.56921C8.24457 7.47763 8.3151 7.40494 8.40396 7.40494H11.6835C11.7723 7.40494 11.8612 7.47763 11.896 7.55127L15.2112 16.76L18.3314 7.55127C18.3671 7.47858 18.455 7.40494 18.5439 7.40494H21.6109C21.6997 7.40494 21.7703 7.47763 21.7703 7.56921L21.6997 13.7993L21.7703 20.0294C21.7703 20.1209 21.6997 20.1936 21.6109 20.1936H19.2172C19.1283 20.1936 19.0578 20.1209 19.0578 20.0294V14.7859L19.1467 11.7714L19.1641 11.187L16.1328 20.0483C16.0971 20.121 16.0091 20.1946 15.9203 20.1946H14.112C14.0231 20.1946 13.9343 20.1219 13.8994 20.0483L10.5842 10.8396L10.6016 11.8082L10.6905 14.7859Z" fill="#FEFEFE"/>
<path d="M27.9565 23.1354C27.9208 23.227 27.8328 23.2997 27.744 23.2997H25.528C25.4575 23.2997 25.386 23.227 25.4217 23.1354L26.379 20.2852L22.7093 10.9302C22.6919 10.8575 22.745 10.7838 22.8155 10.7838H25.4923C25.5811 10.7838 25.67 10.8565 25.7048 10.9302L27.6908 16.8138L29.3397 10.9491C29.3571 10.8575 29.446 10.7848 29.5349 10.7848H31.9102C31.9991 10.7848 32.0522 10.8575 32.0165 10.9491L27.9565 23.1354Z" fill="#FEFEFE"/>
<path d="M33.1158 20.1946C33.0269 20.1946 32.9564 20.1219 32.9564 20.0303L33.0452 13.8002L32.9564 7.57016C32.9564 7.47858 33.0269 7.40588 33.1158 7.40588H37.4946C41.0581 7.40588 44.0719 9.37904 44.0719 13.8918C44.0719 18.4046 41.0224 20.1955 37.5303 20.1955H33.1158V20.1946ZM35.7037 18.1299H37.6714C39.6748 18.1299 41.288 16.9054 41.288 13.8729C41.288 10.8405 39.6922 9.46967 37.6008 9.46967H35.7037C35.7037 9.48761 35.6331 11.626 35.6331 13.7455C35.6331 15.865 35.7037 18.1119 35.7037 18.1308V18.1299Z" fill="#FEFEFE"/>
<path d="M45.206 9.87091C45.1172 9.87091 45.0466 9.79822 45.0466 9.70664V7.56921C45.0466 7.47763 45.1172 7.40494 45.206 7.40494H47.5814C47.6702 7.40494 47.7408 7.47763 47.7408 7.56921V9.70664C47.7408 9.79822 47.6702 9.87091 47.5814 9.87091H45.206ZM45.206 20.1936C45.1172 20.1936 45.0466 20.1209 45.0466 20.0294L45.0998 15.4987L45.0466 10.9491C45.0466 10.8575 45.1172 10.7848 45.206 10.7848H47.5997C47.6886 10.7848 47.7591 10.8575 47.7591 10.9491L47.706 15.4987L47.7591 20.0294C47.7591 20.1209 47.6886 20.1936 47.5997 20.1936H45.206Z" fill="#FEFEFE"/>
<path d="M53.414 23.8482C51.0203 23.8851 49.1946 22.8796 49.0526 20.8158C49.0526 20.7242 49.1231 20.6515 49.212 20.6515H51.4985C51.6047 20.6515 51.6762 20.7242 51.6936 20.8158C51.8173 21.5834 52.42 22.0403 53.5019 22.0403C54.6543 22.0403 55.4522 21.3823 55.4522 19.9029V18.8247C54.8494 19.647 53.9627 20.1398 52.8286 20.1398C50.1161 20.1398 48.6981 18.0751 48.6981 15.426C48.6981 12.7768 50.2224 10.6573 52.7049 10.6573C53.8399 10.6573 54.7258 11.0595 55.3469 11.8082L55.2937 10.9491C55.2937 10.8575 55.3643 10.7848 55.4531 10.7848H57.7928C57.8816 10.7848 57.9522 10.8575 57.9522 10.9491L57.9164 15.6261L57.9338 19.9378C57.9338 22.3131 56.4269 23.8473 53.413 23.8473L53.414 23.8482ZM53.3966 18.3489C54.691 18.3489 55.3817 17.3991 55.4 15.4987C55.4174 13.5434 54.7267 12.4653 53.4497 12.4474C52.1022 12.4105 51.4105 13.4339 51.4105 15.3155C51.4105 17.3434 52.1196 18.3668 53.3966 18.3489Z" fill="#FEFEFE"/>
<path d="M59.2814 9.87091C59.1925 9.87091 59.122 9.79822 59.122 9.70664V7.56921C59.122 7.47763 59.1925 7.40494 59.2814 7.40494H61.6567C61.7456 7.40494 61.8161 7.47763 61.8161 7.56921V9.70664C61.8161 9.79822 61.7456 9.87091 61.6567 9.87091H59.2814ZM59.2814 20.1936C59.1925 20.1936 59.122 20.1209 59.122 20.0294L59.1751 15.4987L59.122 10.9491C59.122 10.8575 59.1925 10.7848 59.2814 10.7848H61.6751C61.7639 10.7848 61.8344 10.8575 61.8344 10.9491L61.7813 15.4987L61.8344 20.0294C61.8344 20.1209 61.7639 20.1936 61.6751 20.1936H59.2814Z" fill="#FEFEFE"/>
<path d="M68.6774 19.8472C68.6774 19.9387 68.6069 20.0294 68.5355 20.0662C68.0215 20.2494 67.4362 20.3768 66.8691 20.3768C65.3265 20.3768 63.8553 19.5724 63.8553 17.435L63.8727 12.7211H62.8448C62.756 12.7211 62.6855 12.6484 62.6855 12.5569V10.9491C62.6855 10.8575 62.756 10.7848 62.8448 10.7848H63.8727L63.8553 8.59262C63.8553 8.50104 63.9258 8.42834 64.0147 8.42834H66.3726C66.4615 8.42834 66.532 8.50104 66.532 8.59262L66.5146 10.7848H68.5355C68.6243 10.7848 68.6948 10.8575 68.6948 10.9491V12.5569C68.6948 12.6484 68.6243 12.7211 68.5355 12.7211H66.4963L66.5137 17.3623C66.5137 18.1667 66.9039 18.4216 67.4884 18.4216C67.9134 18.4216 68.2505 18.3489 68.5162 18.2573C68.6051 18.2394 68.6756 18.3121 68.6756 18.3848V19.8462L68.6774 19.8472Z" fill="#FEFEFE"/>
<path d="M75.8209 20.1946C75.7321 20.1946 75.6615 20.1219 75.6615 20.0303L75.6972 19.0985C75.0587 19.9019 74.1546 20.3777 73.0022 20.3777C70.4143 20.3777 69.0484 18.2582 69.0484 15.5175C69.0484 12.7768 70.5728 10.6026 73.0553 10.6026C74.1903 10.6026 75.0761 11.0227 75.6972 11.7902L75.6441 10.95C75.6441 10.8584 75.7146 10.7857 75.8035 10.7857H78.1789C78.2677 10.7857 78.3383 10.8584 78.3383 10.95L78.2851 15.4996L78.3383 20.0303C78.3383 20.1219 78.2677 20.1946 78.1789 20.1946H75.8209ZM73.7469 18.55C75.0413 18.55 75.7321 17.5454 75.7504 15.5534C75.7678 13.5434 75.0771 12.4473 73.8001 12.4294C72.4525 12.3926 71.7609 13.4339 71.7609 15.3712C71.7609 17.4907 72.4699 18.5688 73.7469 18.55Z" fill="#FEFEFE"/>
<path d="M79.6675 20.1946C79.5787 20.1946 79.5081 20.1219 79.5081 20.0303L79.5786 13.8002L79.5081 7.57016C79.5081 7.47858 79.5787 7.40588 79.6675 7.40588H81.9897C82.0786 7.40588 82.1491 7.47858 82.1491 7.57016L82.0786 13.8002L82.1491 20.0303C82.1491 20.1219 82.0786 20.1946 81.9897 20.1946H79.6675Z" fill="#FEFEFE"/>
<path d="M83.5672 20.1946C83.4783 20.1946 83.4078 20.1219 83.4078 20.0303L83.4966 13.8002L83.4078 7.57016C83.4078 7.47858 83.4783 7.40588 83.5672 7.40588H91.9345C92.0234 7.40588 92.0939 7.47858 92.0939 7.57016V9.30635C92.0939 9.39792 92.0234 9.47062 91.9345 9.47062H86.1551L86.0845 12.4124H91.4206C91.5095 12.4124 91.58 12.4851 91.58 12.5767V14.3129C91.58 14.4045 91.5095 14.4772 91.4206 14.4772H86.0845L86.1551 18.1317H92.0765C92.1654 18.1317 92.2359 18.2044 92.2359 18.296V20.0313C92.2359 20.1228 92.1654 20.1955 92.0765 20.1955H83.5672V20.1946Z" fill="#FEFEFE"/>
<path d="M97.1827 20.4136C94.5233 20.4136 92.8213 19.2996 92.7324 17.198C92.7324 17.1065 92.803 17.0338 92.8918 17.0338H95.1609C95.2498 17.0338 95.3203 17.1065 95.3203 17.198C95.3908 18.2573 96.0651 18.7142 97.3054 18.7142C98.3516 18.7142 98.9186 18.2941 98.9186 17.5634C98.9186 15.7724 92.944 17.5086 92.944 13.5623C92.944 11.6071 94.4684 10.5658 96.9326 10.5658C99.3968 10.5658 100.939 11.5523 101.099 13.5255C101.116 13.6171 101.046 13.6898 100.957 13.6898H98.794C98.7052 13.6898 98.6346 13.6171 98.6163 13.5255C98.4743 12.7221 97.9778 12.2283 96.8969 12.2283C96.0284 12.2283 95.4788 12.5569 95.4788 13.3612C95.4788 15.1522 101.453 13.3244 101.453 17.3264C101.453 19.2996 99.645 20.4146 97.1808 20.4146L97.1827 20.4136Z" fill="#FEFEFE"/>
<path d="M107.695 19.8472C107.695 19.9387 107.625 20.0294 107.553 20.0662C107.04 20.2494 106.454 20.3768 105.887 20.3768C104.344 20.3768 102.873 19.5724 102.873 17.435L102.891 12.7211H101.863C101.774 12.7211 101.703 12.6484 101.703 12.5569V10.9491C101.703 10.8575 101.774 10.7848 101.863 10.7848H102.891L102.873 8.59262C102.873 8.50104 102.944 8.42834 103.033 8.42834H105.391C105.479 8.42834 105.55 8.50104 105.55 8.59262L105.533 10.7848H107.553C107.642 10.7848 107.713 10.8575 107.713 10.9491V12.5569C107.713 12.6484 107.642 12.7211 107.553 12.7211H105.514L105.532 17.3623C105.532 18.1667 105.922 18.4216 106.506 18.4216C106.931 18.4216 107.269 18.3489 107.534 18.2573C107.623 18.2394 107.694 18.3121 107.694 18.3848V19.8462L107.695 19.8472Z" fill="#FEFEFE"/>
<path d="M115.193 20.1946C115.105 20.1946 115.034 20.1219 115.034 20.0303L115.07 19.0985C114.431 19.9019 113.527 20.3777 112.375 20.3777C109.787 20.3777 108.421 18.2582 108.421 15.5175C108.421 12.7768 109.945 10.6026 112.428 10.6026C113.563 10.6026 114.449 11.0227 115.07 11.7902L115.017 10.95C115.017 10.8584 115.087 10.7857 115.176 10.7857H117.551C117.64 10.7857 117.711 10.8584 117.711 10.95L117.658 15.4996L117.711 20.0303C117.711 20.1219 117.64 20.1946 117.551 20.1946H115.193ZM113.119 18.55C114.414 18.55 115.105 17.5454 115.123 15.5534C115.14 13.5434 114.45 12.4473 113.173 12.4294C111.825 12.3926 111.133 13.4339 111.133 15.3712C111.133 17.4907 111.842 18.5688 113.119 18.55Z" fill="#FEFEFE"/>
<path d="M124.855 19.8472C124.855 19.9387 124.785 20.0294 124.713 20.0662C124.199 20.2494 123.614 20.3768 123.047 20.3768C121.504 20.3768 120.033 19.5724 120.033 17.435L120.05 12.7211H119.023C118.934 12.7211 118.863 12.6484 118.863 12.5569V10.9491C118.863 10.8575 118.934 10.7848 119.023 10.7848H120.05L120.033 8.59262C120.033 8.50104 120.104 8.42834 120.192 8.42834H122.55C122.639 8.42834 122.71 8.50104 122.71 8.59262L122.692 10.7848H124.713C124.802 10.7848 124.873 10.8575 124.873 10.9491V12.5569C124.873 12.6484 124.802 12.7211 124.713 12.7211H122.674L122.691 17.3623C122.691 18.1667 123.082 18.4216 123.666 18.4216C124.091 18.4216 124.428 18.3489 124.694 18.2573C124.783 18.2394 124.853 18.3121 124.853 18.3848V19.8462L124.855 19.8472Z" fill="#FEFEFE"/>
<path d="M134.517 17.0149C134.606 17.0149 134.676 17.0876 134.659 17.1791C134.428 18.8965 132.833 20.4315 130.28 20.4315C127.231 20.4315 125.582 18.3668 125.582 15.5166C125.582 12.52 127.319 10.5469 130.226 10.5469C133.133 10.5469 134.889 12.5927 134.942 15.882C134.942 15.9735 134.871 16.0462 134.783 16.0462H128.258C128.365 17.8183 129.039 18.6038 130.315 18.6038C131.202 18.6038 131.839 18.1837 132.088 17.1791C132.105 17.0876 132.194 17.0149 132.283 17.0149H134.516H134.517ZM130.244 12.3558C129.181 12.3558 128.542 13.0138 128.33 14.311H132.07C131.964 13.3065 131.414 12.3558 130.244 12.3558Z" fill="#FEFEFE"/>
</svg>
