<svg width="127" height="17" viewBox="0 0 127 17" fill="none" xmlns="http://www.w3.org/2000/svg">
<path d="M2.68723 7.78587V13.0294C2.68723 13.1209 2.61669 13.1936 2.52784 13.1936H0.400728C0.311869 13.1936 0.241333 13.1209 0.241333 13.0294L0.311872 6.79929L0.241333 0.56921C0.241333 0.477633 0.311869 0.404938 0.400728 0.404938H3.68024C3.7691 0.404938 3.85796 0.477633 3.89277 0.551273L7.20801 9.75997L10.3281 0.551273C10.3639 0.478577 10.4518 0.404938 10.5407 0.404938H13.6076C13.6965 0.404938 13.767 0.477633 13.767 0.56921L13.6965 6.79929L13.767 13.0294C13.767 13.1209 13.6965 13.1936 13.6076 13.1936H11.214C11.1251 13.1936 11.0546 13.1209 11.0546 13.0294V7.78587L11.1434 4.77138L11.1608 4.18698L8.12958 13.0483C8.09385 13.121 8.00591 13.1946 7.91705 13.1946H6.10873C6.01988 13.1946 5.93102 13.1219 5.89621 13.0483L2.58096 3.83955L2.59837 4.8082L2.68723 7.78587Z" fill="#344767"/>
<path d="M19.9532 16.1354C19.9175 16.227 19.8296 16.2997 19.7407 16.2997H17.5248C17.4542 16.2997 17.3828 16.227 17.4185 16.1354L18.3758 13.2852L14.706 3.93018C14.6886 3.85748 14.7418 3.78384 14.8123 3.78384H17.489C17.5779 3.78384 17.6667 3.85654 17.7016 3.93018L19.6876 9.81378L21.3365 3.94906C21.3539 3.85748 21.4428 3.78479 21.5316 3.78479H23.907C23.9958 3.78479 24.049 3.85748 24.0133 3.94906L19.9532 16.1354Z" fill="#344767"/>
<path d="M25.1125 13.1946C25.0237 13.1946 24.9531 13.1219 24.9531 13.0303L25.042 6.80024L24.9531 0.570156C24.9531 0.478579 25.0237 0.405884 25.1125 0.405884H29.4913C33.0548 0.405884 36.0687 2.37904 36.0687 6.89181C36.0687 11.4046 33.0191 13.1955 29.527 13.1955H25.1125V13.1946ZM27.7004 11.1299H29.6681C31.6716 11.1299 33.2847 9.90536 33.2847 6.87293C33.2847 3.8405 31.689 2.46967 29.5976 2.46967H27.7004C27.7004 2.48761 27.6299 4.62599 27.6299 6.74548C27.6299 8.86497 27.7004 11.1119 27.7004 11.1308V11.1299Z" fill="#344767"/>
<path d="M37.2028 2.87091C37.1139 2.87091 37.0434 2.79822 37.0434 2.70664V0.56921C37.0434 0.477633 37.1139 0.404938 37.2028 0.404938H39.5782C39.667 0.404938 39.7375 0.477633 39.7375 0.56921V2.70664C39.7375 2.79822 39.667 2.87091 39.5782 2.87091H37.2028ZM37.2028 13.1936C37.1139 13.1936 37.0434 13.1209 37.0434 13.0294L37.0965 8.49866L37.0434 3.94907C37.0434 3.85749 37.1139 3.7848 37.2028 3.7848H39.5965C39.6853 3.7848 39.7559 3.85749 39.7559 3.94907L39.7027 8.49866L39.7559 13.0294C39.7559 13.1209 39.6853 13.1936 39.5965 13.1936H37.2028Z" fill="#344767"/>
<path d="M45.4107 16.8482C43.017 16.8851 41.1913 15.8796 41.0493 13.8158C41.0493 13.7242 41.1199 13.6515 41.2087 13.6515H43.4952C43.6015 13.6515 43.673 13.7242 43.6904 13.8158C43.814 14.5834 44.4168 15.0403 45.4987 15.0403C46.6511 15.0403 47.449 14.3823 47.449 12.9029V11.8247C46.8462 12.647 45.9595 13.1398 44.8254 13.1398C42.1129 13.1398 40.6948 11.0751 40.6948 8.42597C40.6948 5.77684 42.2192 3.65735 44.7017 3.65735C45.8367 3.65735 46.7225 4.05953 47.3436 4.8082L47.2905 3.94907C47.2905 3.8575 47.361 3.7848 47.4499 3.7848H49.7895C49.8784 3.7848 49.9489 3.8575 49.9489 3.94907L49.9132 8.62612L49.9306 12.9378C49.9306 15.3131 48.4237 16.8473 45.4098 16.8473L45.4107 16.8482ZM45.3933 11.3489C46.6877 11.3489 47.3784 10.3991 47.3968 8.49867C47.4142 6.54345 46.7235 5.46529 45.4465 5.44735C44.0989 5.41053 43.4073 6.43393 43.4073 8.31551C43.4073 10.3434 44.1163 11.3668 45.3933 11.3489Z" fill="#344767"/>
<path d="M51.2782 2.87091C51.1893 2.87091 51.1188 2.79822 51.1188 2.70664V0.56921C51.1188 0.477633 51.1893 0.404938 51.2782 0.404938H53.6535C53.7424 0.404938 53.8129 0.477633 53.8129 0.56921V2.70664C53.8129 2.79822 53.7424 2.87091 53.6535 2.87091H51.2782ZM51.2782 13.1936C51.1893 13.1936 51.1188 13.1209 51.1188 13.0294L51.1719 8.49866L51.1188 3.94907C51.1188 3.85749 51.1893 3.7848 51.2782 3.7848H53.6718C53.7607 3.7848 53.8312 3.85749 53.8312 3.94907L53.7781 8.49866L53.8312 13.0294C53.8312 13.1209 53.7607 13.1936 53.6718 13.1936H51.2782Z" fill="#344767"/>
<path d="M60.6742 12.8472C60.6742 12.9387 60.6037 13.0294 60.5322 13.0662C60.0183 13.2494 59.433 13.3768 58.8659 13.3768C57.3233 13.3768 55.8521 12.5724 55.8521 10.435L55.8695 5.72114H54.8416C54.7528 5.72114 54.6823 5.64845 54.6823 5.55687V3.94908C54.6823 3.8575 54.7528 3.78481 54.8416 3.78481H55.8695L55.8521 1.59262C55.8521 1.50104 55.9226 1.42834 56.0115 1.42834H58.3694C58.4583 1.42834 58.5288 1.50104 58.5288 1.59262L58.5114 3.78481H60.5322C60.6211 3.78481 60.6916 3.8575 60.6916 3.94908V5.55687C60.6916 5.64845 60.6211 5.72114 60.5322 5.72114H58.4931L58.5105 10.3623C58.5105 11.1667 58.9007 11.4216 59.4852 11.4216C59.9102 11.4216 60.2473 11.3489 60.513 11.2573C60.6019 11.2394 60.6724 11.3121 60.6724 11.3848V12.8462L60.6742 12.8472Z" fill="#344767"/>
<path d="M67.8177 13.1946C67.7289 13.1946 67.6583 13.1219 67.6583 13.0303L67.694 12.0985C67.0555 12.9019 66.1514 13.3777 64.999 13.3777C62.4111 13.3777 61.0452 11.2582 61.0452 8.51753C61.0452 5.77682 62.5696 3.60257 65.0521 3.60257C66.1871 3.60257 67.0729 4.02269 67.694 4.79024L67.6409 3.95C67.6409 3.85842 67.7114 3.78572 67.8003 3.78572H70.1757C70.2645 3.78572 70.3351 3.85842 70.3351 3.95L70.2819 8.49959L70.3351 13.0303C70.3351 13.1219 70.2645 13.1946 70.1757 13.1946H67.8177ZM65.7437 11.55C67.0381 11.55 67.7288 10.5454 67.7472 8.5534C67.7646 6.54342 67.0739 5.44733 65.7969 5.42939C64.4493 5.39257 63.7577 6.43391 63.7577 8.37119C63.7577 10.4907 64.4667 11.5688 65.7437 11.55Z" fill="#344767"/>
<path d="M71.6643 13.1946C71.5754 13.1946 71.5049 13.1219 71.5049 13.0303L71.5754 6.80024L71.5049 0.570156C71.5049 0.478579 71.5754 0.405884 71.6643 0.405884H73.9865C74.0754 0.405884 74.1459 0.478579 74.1459 0.570156L74.0754 6.80024L74.1459 13.0303C74.1459 13.1219 74.0754 13.1946 73.9865 13.1946H71.6643Z" fill="#344767"/>
<path d="M75.5639 13.1946C75.4751 13.1946 75.4045 13.1219 75.4045 13.0303L75.4934 6.80024L75.4045 0.570156C75.4045 0.478579 75.4751 0.405884 75.5639 0.405884H83.9313C84.0201 0.405884 84.0907 0.478579 84.0907 0.570156V2.30635C84.0907 2.39792 84.0201 2.47062 83.9313 2.47062H78.1518L78.0813 5.41242H83.4174C83.5062 5.41242 83.5768 5.48511 83.5768 5.57669V7.31288C83.5768 7.40446 83.5062 7.47715 83.4174 7.47715H78.0813L78.1518 11.1317H84.0733C84.1621 11.1317 84.2327 11.2044 84.2327 11.296V13.0313C84.2327 13.1228 84.1621 13.1955 84.0733 13.1955H75.5639V13.1946Z" fill="#344767"/>
<path d="M89.1794 13.4136C86.5201 13.4136 84.818 12.2996 84.7292 10.198C84.7292 10.1065 84.7997 10.0338 84.8886 10.0338H87.1577C87.2465 10.0338 87.3171 10.1065 87.3171 10.198C87.3876 11.2573 88.0618 11.7142 89.3022 11.7142C90.3483 11.7142 90.9154 11.2941 90.9154 10.5634C90.9154 8.77245 84.9408 10.5086 84.9408 6.56232C84.9408 4.6071 86.4651 3.56577 88.9293 3.56577C91.3936 3.56577 92.9362 4.55234 93.0956 6.5255C93.113 6.61708 93.0425 6.68977 92.9536 6.68977H90.7908C90.7019 6.68977 90.6314 6.61708 90.6131 6.5255C90.4711 5.72208 89.9746 5.22832 88.8936 5.22832C88.0252 5.22832 87.4756 5.55686 87.4756 6.36123C87.4756 8.15218 93.4501 6.32441 93.4501 10.3264C93.4501 12.2996 91.6418 13.4146 89.1776 13.4146L89.1794 13.4136Z" fill="#344767"/>
<path d="M99.6922 12.8472C99.6922 12.9387 99.6216 13.0294 99.5502 13.0662C99.0363 13.2494 98.4509 13.3768 97.8839 13.3768C96.3412 13.3768 94.87 12.5724 94.87 10.435L94.8874 5.72114H93.8596C93.7707 5.72114 93.7002 5.64845 93.7002 5.55687V3.94908C93.7002 3.8575 93.7707 3.78481 93.8596 3.78481H94.8874L94.87 1.59262C94.87 1.50104 94.9405 1.42834 95.0294 1.42834H97.3874C97.4762 1.42834 97.5468 1.50104 97.5468 1.59262L97.5294 3.78481H99.5502C99.639 3.78481 99.7096 3.8575 99.7096 3.94908V5.55687C99.7096 5.64845 99.639 5.72114 99.5502 5.72114H97.511L97.5284 10.3623C97.5284 11.1667 97.9187 11.4216 98.5031 11.4216C98.9282 11.4216 99.2653 11.3489 99.531 11.2573C99.6198 11.2394 99.6904 11.3121 99.6904 11.3848V12.8462L99.6922 12.8472Z" fill="#344767"/>
<path d="M107.19 13.1946C107.101 13.1946 107.031 13.1219 107.031 13.0303L107.067 12.0985C106.428 12.9019 105.524 13.3777 104.371 13.3777C101.784 13.3777 100.418 11.2582 100.418 8.51753C100.418 5.77682 101.942 3.60257 104.425 3.60257C105.56 3.60257 106.445 4.02269 107.067 4.79024L107.013 3.95C107.013 3.85842 107.084 3.78572 107.173 3.78572H109.548C109.637 3.78572 109.708 3.85842 109.708 3.95L109.654 8.49959L109.708 13.0303C109.708 13.1219 109.637 13.1946 109.548 13.1946H107.19ZM105.116 11.55C106.411 11.55 107.101 10.5454 107.12 8.5534C107.137 6.54342 106.446 5.44733 105.169 5.42939C103.822 5.39257 103.13 6.43391 103.13 8.37119C103.13 10.4907 103.839 11.5688 105.116 11.55Z" fill="#344767"/>
<path d="M116.852 12.8472C116.852 12.9387 116.781 13.0294 116.71 13.0662C116.196 13.2494 115.611 13.3768 115.044 13.3768C113.501 13.3768 112.03 12.5724 112.03 10.435L112.047 5.72114H111.019C110.931 5.72114 110.86 5.64845 110.86 5.55687V3.94908C110.86 3.8575 110.931 3.78481 111.019 3.78481H112.047L112.03 1.59262C112.03 1.50104 112.1 1.42834 112.189 1.42834H114.547C114.636 1.42834 114.707 1.50104 114.707 1.59262L114.689 3.78481H116.71C116.799 3.78481 116.869 3.8575 116.869 3.94908V5.55687C116.869 5.64845 116.799 5.72114 116.71 5.72114H114.671L114.688 10.3623C114.688 11.1667 115.078 11.4216 115.663 11.4216C116.088 11.4216 116.425 11.3489 116.691 11.2573C116.78 11.2394 116.85 11.3121 116.85 11.3848V12.8462L116.852 12.8472Z" fill="#344767"/>
<path d="M126.514 10.0149C126.603 10.0149 126.673 10.0876 126.656 10.1791C126.425 11.8965 124.83 13.4315 122.277 13.4315C119.227 13.4315 117.578 11.3668 117.578 8.51659C117.578 5.52003 119.316 3.54688 122.223 3.54688C125.13 3.54688 126.886 5.59273 126.939 8.88195C126.939 8.97353 126.868 9.04623 126.779 9.04623H120.255C120.361 10.8183 121.036 11.6038 122.312 11.6038C123.198 11.6038 123.836 11.1837 124.084 10.1791C124.102 10.0876 124.191 10.0149 124.279 10.0149H126.513H126.514ZM122.241 5.35576C121.178 5.35576 120.539 6.01379 120.327 7.31098H124.067C123.961 6.30646 123.411 5.35576 122.241 5.35576Z" fill="#344767"/>
</svg>
