<svg width="270" height="126" viewBox="0 0 270 126" fill="none" xmlns="http://www.w3.org/2000/svg">
<path d="M148.192 0H157.81C160.021 0 161.817 1.85106 161.817 4.12976V50.9363C161.817 53.215 160.021 55.0661 157.81 55.0661H144.185V4.12976C144.185 1.85106 145.981 0 148.192 0Z" fill="#0253AA"/>
<path d="M130.56 11.8653H140.178C142.389 11.8653 144.185 13.7163 144.185 15.995V55.0661H126.553V15.995C126.553 13.7163 128.349 11.8653 130.56 11.8653Z" fill="#007AFF"/>
<path d="M112.929 28.6854H122.546C124.757 28.6854 126.553 30.5365 126.553 32.8152V55.0661H112.929C110.718 55.0661 108.921 53.215 108.921 50.9363V32.8152C108.921 30.5365 110.718 28.6854 112.929 28.6854Z" fill="#2FC0ED"/>
<path d="M179.34 32.8553C174.816 32.3072 168.66 32.502 161.817 33.2308V34.2607C165.836 34.0158 169.276 34.092 171.73 34.5659C183.275 36.7984 171.349 46.8989 136.235 55.3793C101.209 63.8375 88.907 59.6114 100.073 51.9C102.276 50.3782 105.331 48.7901 108.919 47.2241V45.9874C102.047 48.5713 95.8635 51.3559 91.3187 54.0984C72.7576 65.2911 82.7726 74.6327 135.241 61.9784C187.767 49.3121 197.889 35.0999 179.34 32.8553Z" fill="#344767"/>
<path d="M5.61208 105.823V116.974C5.61208 117.169 5.46208 117.323 5.27312 117.323H0.749726C0.560765 117.323 0.410767 117.169 0.410767 116.974L0.560771 103.725L0.410767 90.4768C0.410767 90.282 0.560765 90.1275 0.749726 90.1275H7.72376C7.91272 90.1275 8.10168 90.282 8.17571 90.4386L15.2257 110.021L21.8608 90.4386C21.9368 90.2841 22.1238 90.1275 22.3127 90.1275H28.8348C29.0238 90.1275 29.1738 90.282 29.1738 90.4768L29.0238 103.725L29.1738 116.974C29.1738 117.169 29.0238 117.323 28.8348 117.323H23.7446C23.5556 117.323 23.4056 117.169 23.4056 116.974V105.823L23.5946 99.4129L23.6316 98.1701L17.1855 117.014C17.1095 117.169 16.9225 117.325 16.7335 117.325H12.8881C12.6991 117.325 12.5101 117.171 12.4361 117.014L5.38609 97.4313L5.42311 99.4912L5.61208 105.823Z" fill="#344767"/>
<path d="M42.329 123.579C42.253 123.774 42.066 123.928 41.877 123.928H37.1647C37.0147 123.928 36.8627 123.774 36.9387 123.579L38.9744 117.518L31.1705 97.6241C31.1335 97.4695 31.2465 97.3129 31.3965 97.3129H37.0887C37.2777 97.3129 37.4666 97.4675 37.5407 97.6241L41.764 110.136L45.2705 97.6642C45.3076 97.4695 45.4965 97.3149 45.6855 97.3149H50.7368C50.9257 97.3149 51.0387 97.4695 50.9628 97.6642L42.329 123.579Z" fill="#344767"/>
<path d="M53.3004 117.325C53.1115 117.325 52.9615 117.171 52.9615 116.976L53.1504 103.727L52.9615 90.4788C52.9615 90.2841 53.1115 90.1295 53.3004 90.1295H62.6121C70.1901 90.1295 76.5992 94.3255 76.5992 103.922C76.5992 113.519 70.1141 117.327 62.6881 117.327H53.3004V117.325ZM58.8037 112.934H62.9881C67.2485 112.934 70.679 110.331 70.679 103.882C70.679 97.4333 67.2855 94.5182 62.8381 94.5182H58.8037C58.8037 94.5564 58.6537 99.1037 58.6537 103.611C58.6537 108.118 58.8037 112.896 58.8037 112.936V112.934Z" fill="#344767"/>
<path d="M79.0109 95.3715C78.8219 95.3715 78.6719 95.2169 78.6719 95.0221V90.4768C78.6719 90.282 78.8219 90.1275 79.0109 90.1275H84.0622C84.2512 90.1275 84.4012 90.282 84.4012 90.4768V95.0221C84.4012 95.2169 84.2512 95.3715 84.0622 95.3715H79.0109ZM79.0109 117.323C78.8219 117.323 78.6719 117.169 78.6719 116.974L78.7849 107.339L78.6719 97.6642C78.6719 97.4695 78.8219 97.3149 79.0109 97.3149H84.1012C84.2901 97.3149 84.4401 97.4695 84.4401 97.6642L84.3271 107.339L84.4401 116.974C84.4401 117.169 84.2901 117.323 84.1012 117.323H79.0109Z" fill="#344767"/>
<path d="M96.4655 125.095C91.3752 125.173 87.4927 123.035 87.1908 118.646C87.1908 118.452 87.3408 118.297 87.5297 118.297H92.3921C92.6181 118.297 92.77 118.452 92.807 118.646C93.07 120.278 94.3518 121.25 96.6525 121.25C99.1032 121.25 100.8 119.851 100.8 116.705V114.412C99.5181 116.161 97.6324 117.209 95.2207 117.209C89.4525 117.209 86.4369 112.818 86.4369 107.185C86.4369 101.551 89.6785 97.0438 94.9577 97.0438C97.3713 97.0438 99.2551 97.8991 100.576 99.4912L100.463 97.6642C100.463 97.4695 100.613 97.3149 100.802 97.3149H105.777C105.966 97.3149 106.116 97.4695 106.116 97.6642L106.04 107.61L106.077 116.779C106.077 121.83 102.873 125.093 96.4635 125.093L96.4655 125.095ZM96.4285 113.4C99.1811 113.4 100.65 111.381 100.689 107.339C100.726 103.181 99.257 100.889 96.5414 100.85C93.6759 100.772 92.2051 102.948 92.2051 106.95C92.2051 111.262 93.7129 113.438 96.4285 113.4Z" fill="#344767"/>
<path d="M108.943 95.3715C108.754 95.3715 108.604 95.2169 108.604 95.0221V90.4768C108.604 90.282 108.754 90.1275 108.943 90.1275H113.994C114.183 90.1275 114.333 90.282 114.333 90.4768V95.0221C114.333 95.2169 114.183 95.3715 113.994 95.3715H108.943ZM108.943 117.323C108.754 117.323 108.604 117.169 108.604 116.974L108.717 107.339L108.604 97.6642C108.604 97.4695 108.754 97.3149 108.943 97.3149H114.033C114.222 97.3149 114.372 97.4695 114.372 97.6642L114.259 107.339L114.372 116.974C114.372 117.169 114.222 117.323 114.033 117.323H108.943Z" fill="#344767"/>
<path d="M128.924 116.586C128.924 116.781 128.774 116.974 128.622 117.052C127.529 117.442 126.284 117.713 125.078 117.713C121.798 117.713 118.669 116.002 118.669 111.457L118.706 101.433H116.521C116.332 101.433 116.182 101.278 116.182 101.083V97.6642C116.182 97.4695 116.332 97.3149 116.521 97.3149H118.706L118.669 92.6531C118.669 92.4583 118.819 92.3038 119.008 92.3038H124.023C124.212 92.3038 124.362 92.4583 124.362 92.6531L124.325 97.3149H128.622C128.811 97.3149 128.961 97.4695 128.961 97.6642V101.083C128.961 101.278 128.811 101.433 128.622 101.433H124.286L124.323 111.302C124.323 113.013 125.152 113.555 126.395 113.555C127.299 113.555 128.016 113.4 128.581 113.205C128.77 113.167 128.92 113.322 128.92 113.477V116.584L128.924 116.586Z" fill="#344767"/>
<path d="M144.115 117.325C143.926 117.325 143.776 117.171 143.776 116.976L143.852 114.994C142.494 116.703 140.571 117.715 138.121 117.715C132.617 117.715 129.713 113.208 129.713 107.379C129.713 101.551 132.954 96.9274 138.234 96.9274C140.647 96.9274 142.531 97.8208 143.852 99.453L143.739 97.6662C143.739 97.4715 143.889 97.3169 144.078 97.3169H149.129C149.318 97.3169 149.468 97.4715 149.468 97.6662L149.355 107.341L149.468 116.976C149.468 117.171 149.318 117.325 149.129 117.325H144.115ZM139.704 113.828C142.457 113.828 143.926 111.692 143.965 107.456C144.002 103.181 142.533 100.85 139.817 100.812C136.952 100.734 135.481 102.948 135.481 107.068C135.481 111.575 136.989 113.868 139.704 113.828Z" fill="#344767"/>
<path d="M152.295 117.325C152.106 117.325 151.956 117.171 151.956 116.976L152.106 103.727L151.956 90.4788C151.956 90.2841 152.106 90.1295 152.295 90.1295H157.233C157.422 90.1295 157.572 90.2841 157.572 90.4788L157.422 103.727L157.572 116.976C157.572 117.171 157.422 117.325 157.233 117.325H152.295Z" fill="#344767"/>
<path d="M160.588 117.325C160.399 117.325 160.249 117.171 160.249 116.976L160.438 103.727L160.249 90.4788C160.249 90.2841 160.399 90.1295 160.588 90.1295H178.381C178.57 90.1295 178.72 90.2841 178.72 90.4788V94.1709C178.72 94.3656 178.57 94.5202 178.381 94.5202H166.091L165.941 100.776H177.288C177.477 100.776 177.627 100.931 177.627 101.125V104.817C177.627 105.012 177.477 105.167 177.288 105.167H165.941L166.091 112.938H178.683C178.872 112.938 179.022 113.093 179.022 113.288V116.978C179.022 117.173 178.872 117.327 178.683 117.327H160.588V117.325Z" fill="#344767"/>
<path d="M189.542 117.791C183.886 117.791 180.267 115.422 180.078 110.953C180.078 110.758 180.228 110.604 180.417 110.604H185.242C185.431 110.604 185.581 110.758 185.581 110.953C185.731 113.205 187.165 114.177 189.803 114.177C192.027 114.177 193.233 113.284 193.233 111.73C193.233 107.921 180.528 111.613 180.528 103.221C180.528 99.0635 183.769 96.8491 189.01 96.8491C194.25 96.8491 197.53 98.9471 197.869 103.143C197.906 103.338 197.756 103.492 197.567 103.492H192.968C192.779 103.492 192.629 103.338 192.59 103.143C192.288 101.435 191.232 100.385 188.934 100.385C187.087 100.385 185.918 101.083 185.918 102.794C185.918 106.602 198.623 102.715 198.623 111.226C198.623 115.422 194.778 117.793 189.538 117.793L189.542 117.791Z" fill="#344767"/>
<path d="M211.897 116.586C211.897 116.781 211.747 116.974 211.595 117.052C210.503 117.442 209.258 117.713 208.052 117.713C204.771 117.713 201.643 116.002 201.643 111.457L201.68 101.433H199.494C199.305 101.433 199.155 101.278 199.155 101.083V97.6642C199.155 97.4695 199.305 97.3149 199.494 97.3149H201.68L201.643 92.6531C201.643 92.4583 201.793 92.3038 201.982 92.3038H206.996C207.185 92.3038 207.335 92.4583 207.335 92.6531L207.298 97.3149H211.595C211.784 97.3149 211.934 97.4695 211.934 97.6642V101.083C211.934 101.278 211.784 101.433 211.595 101.433H207.259L207.296 111.302C207.296 113.013 208.126 113.555 209.369 113.555C210.273 113.555 210.99 113.4 211.555 113.205C211.744 113.167 211.894 113.322 211.894 113.477V116.584L211.897 116.586Z" fill="#344767"/>
<path d="M227.842 117.325C227.653 117.325 227.503 117.171 227.503 116.976L227.579 114.994C226.221 116.703 224.299 117.715 221.848 117.715C216.345 117.715 213.44 113.208 213.44 107.379C213.44 101.551 216.682 96.9274 221.961 96.9274C224.375 96.9274 226.259 97.8208 227.579 99.453L227.466 97.6662C227.466 97.4715 227.616 97.3169 227.805 97.3169H232.857C233.046 97.3169 233.196 97.4715 233.196 97.6662L233.083 107.341L233.196 116.976C233.196 117.171 233.046 117.325 232.857 117.325H227.842ZM223.432 113.828C226.184 113.828 227.653 111.692 227.692 107.456C227.729 103.181 226.26 100.85 223.545 100.812C220.679 100.734 219.208 102.948 219.208 107.068C219.208 111.575 220.716 113.868 223.432 113.828Z" fill="#344767"/>
<path d="M248.388 116.586C248.388 116.781 248.238 116.974 248.086 117.052C246.994 117.442 245.749 117.713 244.543 117.713C241.262 117.713 238.134 116.002 238.134 111.457L238.171 101.433H235.985C235.796 101.433 235.646 101.278 235.646 101.083V97.6642C235.646 97.4695 235.796 97.3149 235.985 97.3149H238.171L238.134 92.6531C238.134 92.4583 238.284 92.3038 238.473 92.3038H243.487C243.676 92.3038 243.826 92.4583 243.826 92.6531L243.789 97.3149H248.086C248.275 97.3149 248.425 97.4695 248.425 97.6642V101.083C248.425 101.278 248.275 101.433 248.086 101.433H243.75L243.787 111.302C243.787 113.013 244.617 113.555 245.86 113.555C246.764 113.555 247.481 113.4 248.046 113.205C248.234 113.167 248.385 113.322 248.385 113.477V116.584L248.388 116.586Z" fill="#344767"/>
<path d="M268.935 110.563C269.124 110.563 269.274 110.718 269.236 110.913C268.746 114.565 265.354 117.829 259.925 117.829C253.44 117.829 249.933 113.438 249.933 107.377C249.933 101.005 253.629 96.8089 259.81 96.8089C265.991 96.8089 269.725 101.16 269.838 108.154C269.838 108.349 269.688 108.504 269.499 108.504H255.625C255.851 112.272 257.285 113.942 259.999 113.942C261.885 113.942 263.24 113.049 263.768 110.913C263.805 110.718 263.994 110.563 264.183 110.563H268.933H268.935ZM259.849 100.656C257.587 100.656 256.229 102.055 255.777 104.813H263.731C263.505 102.677 262.336 100.656 259.849 100.656Z" fill="#344767"/>
</svg>
