<svg width="286" height="142" viewBox="0 0 286 142" fill="none" xmlns="http://www.w3.org/2000/svg">
<g filter="url(#filter0_d_1_27)">
<path d="M156.192 7H165.81C168.021 7 169.817 8.85106 169.817 11.1298V57.9363C169.817 60.215 168.021 62.0661 165.81 62.0661H152.185V11.1298C152.185 8.85106 153.981 7 156.192 7Z" fill="#FEFEFE"/>
<path d="M138.56 18.8653H148.178C150.389 18.8653 152.185 20.7163 152.185 22.995V62.0661H134.553V22.995C134.553 20.7163 136.349 18.8653 138.56 18.8653Z" fill="#FEFEFE"/>
<path d="M120.929 35.6854H130.546C132.757 35.6854 134.553 37.5365 134.553 39.8152V62.0661H120.929C118.718 62.0661 116.921 60.215 116.921 57.9363V39.8152C116.921 37.5365 118.718 35.6854 120.929 35.6854Z" fill="#FEFEFE"/>
<path d="M187.34 39.8553C182.816 39.3072 176.66 39.502 169.817 40.2308V41.2607C173.836 41.0158 177.276 41.092 179.73 41.5659C191.275 43.7984 179.349 53.8989 144.235 62.3793C109.209 70.8375 96.907 66.6114 108.073 58.9C110.276 57.3782 113.331 55.7901 116.919 54.2241V52.9874C110.047 55.5713 103.863 58.3559 99.3187 61.0984C80.7576 72.2911 90.7725 81.6327 143.241 68.9784C195.767 56.3121 205.889 42.0999 187.34 39.8553Z" fill="url(#paint0_linear_1_27)"/>
</g>
<g filter="url(#filter1_d_1_27)">
<path d="M13.6121 112.823V123.974C13.6121 124.169 13.4621 124.323 13.2731 124.323H8.74971C8.56075 124.323 8.41075 124.169 8.41075 123.974L8.56076 110.725L8.41075 97.4768C8.41075 97.282 8.56075 97.1275 8.74971 97.1275H15.7237C15.9127 97.1275 16.1017 97.282 16.1757 97.4386L23.2257 117.021L29.8608 97.4386C29.9368 97.2841 30.1238 97.1275 30.3127 97.1275H36.8348C37.0238 97.1275 37.1738 97.282 37.1738 97.4768L37.0238 110.725L37.1738 123.974C37.1738 124.169 37.0238 124.323 36.8348 124.323H31.7445C31.5556 124.323 31.4056 124.169 31.4056 123.974V112.823L31.5946 106.413L31.6316 105.17L25.1854 124.014C25.1095 124.169 24.9225 124.325 24.7335 124.325H20.888C20.6991 124.325 20.5101 124.171 20.4361 124.014L13.3861 104.431L13.4231 106.491L13.6121 112.823Z" fill="#FEFEFE"/>
<path d="M50.329 130.579C50.253 130.774 50.066 130.928 49.877 130.928H45.1647C45.0147 130.928 44.8628 130.774 44.9387 130.579L46.9745 124.518L39.1705 104.624C39.1335 104.469 39.2465 104.313 39.3965 104.313H45.0887C45.2777 104.313 45.4667 104.467 45.5407 104.624L49.7641 117.136L53.2706 104.664C53.3076 104.469 53.4965 104.315 53.6855 104.315H58.7368C58.9258 104.315 59.0388 104.469 58.9628 104.664L50.329 130.579Z" fill="#FEFEFE"/>
<path d="M61.3004 124.325C61.1115 124.325 60.9615 124.171 60.9615 123.976L61.1504 110.727L60.9615 97.4788C60.9615 97.2841 61.1115 97.1295 61.3004 97.1295H70.6121C78.1901 97.1295 84.5992 101.325 84.5992 110.922C84.5992 120.519 78.1141 124.327 70.6881 124.327H61.3004V124.325ZM66.8037 119.934H70.9881C75.2485 119.934 78.679 117.331 78.679 110.882C78.679 104.433 75.2855 101.518 70.8381 101.518H66.8037C66.8037 101.556 66.6537 106.104 66.6537 110.611C66.6537 115.118 66.8037 119.896 66.8037 119.936V119.934Z" fill="#FEFEFE"/>
<path d="M87.0109 102.371C86.8219 102.371 86.6719 102.217 86.6719 102.022V97.4768C86.6719 97.282 86.8219 97.1275 87.0109 97.1275H92.0622C92.2511 97.1275 92.4011 97.282 92.4011 97.4768V102.022C92.4011 102.217 92.2511 102.371 92.0622 102.371H87.0109ZM87.0109 124.323C86.8219 124.323 86.6719 124.169 86.6719 123.974L86.7849 114.339L86.6719 104.664C86.6719 104.469 86.8219 104.315 87.0109 104.315H92.1011C92.2901 104.315 92.4401 104.469 92.4401 104.664L92.3271 114.339L92.4401 123.974C92.4401 124.169 92.2901 124.323 92.1011 124.323H87.0109Z" fill="#FEFEFE"/>
<path d="M104.465 132.095C99.3752 132.173 95.4927 130.035 95.1907 125.646C95.1907 125.452 95.3407 125.297 95.5297 125.297H100.392C100.618 125.297 100.77 125.452 100.807 125.646C101.07 127.278 102.352 128.25 104.652 128.25C107.103 128.25 108.8 126.851 108.8 123.705V121.412C107.518 123.161 105.632 124.209 103.221 124.209C97.4524 124.209 94.4369 119.818 94.4369 114.185C94.4369 108.551 97.6784 104.044 102.958 104.044C105.371 104.044 107.255 104.899 108.576 106.491L108.463 104.664C108.463 104.469 108.613 104.315 108.802 104.315H113.777C113.966 104.315 114.116 104.469 114.116 104.664L114.04 114.61L114.077 123.779C114.077 128.83 110.873 132.093 104.463 132.093L104.465 132.095ZM104.428 120.4C107.181 120.4 108.65 118.381 108.689 114.339C108.726 110.181 107.257 107.889 104.541 107.85C101.676 107.772 100.205 109.948 100.205 113.95C100.205 118.262 101.713 120.438 104.428 120.4Z" fill="#FEFEFE"/>
<path d="M116.943 102.371C116.754 102.371 116.604 102.217 116.604 102.022V97.4768C116.604 97.282 116.754 97.1275 116.943 97.1275H121.994C122.183 97.1275 122.333 97.282 122.333 97.4768V102.022C122.333 102.217 122.183 102.371 121.994 102.371H116.943ZM116.943 124.323C116.754 124.323 116.604 124.169 116.604 123.974L116.717 114.339L116.604 104.664C116.604 104.469 116.754 104.315 116.943 104.315H122.033C122.222 104.315 122.372 104.469 122.372 104.664L122.259 114.339L122.372 123.974C122.372 124.169 122.222 124.323 122.033 124.323H116.943Z" fill="#FEFEFE"/>
<path d="M136.924 123.586C136.924 123.781 136.774 123.974 136.622 124.052C135.529 124.442 134.284 124.713 133.078 124.713C129.798 124.713 126.669 123.002 126.669 118.457L126.706 108.433H124.521C124.332 108.433 124.182 108.278 124.182 108.083V104.664C124.182 104.469 124.332 104.315 124.521 104.315H126.706L126.669 99.6531C126.669 99.4583 126.819 99.3038 127.008 99.3038H132.023C132.212 99.3038 132.362 99.4583 132.362 99.6531L132.325 104.315H136.622C136.811 104.315 136.961 104.469 136.961 104.664V108.083C136.961 108.278 136.811 108.433 136.622 108.433H132.286L132.323 118.302C132.323 120.013 133.152 120.555 134.395 120.555C135.299 120.555 136.016 120.4 136.581 120.205C136.77 120.167 136.92 120.322 136.92 120.477V123.584L136.924 123.586Z" fill="#FEFEFE"/>
<path d="M152.115 124.325C151.926 124.325 151.776 124.171 151.776 123.976L151.852 121.994C150.494 123.703 148.571 124.715 146.121 124.715C140.617 124.715 137.713 120.208 137.713 114.379C137.713 108.551 140.954 103.927 146.234 103.927C148.647 103.927 150.531 104.821 151.852 106.453L151.739 104.666C151.739 104.471 151.889 104.317 152.078 104.317H157.129C157.318 104.317 157.468 104.471 157.468 104.666L157.355 114.341L157.468 123.976C157.468 124.171 157.318 124.325 157.129 124.325H152.115ZM147.704 120.828C150.457 120.828 151.926 118.692 151.965 114.456C152.002 110.181 150.533 107.85 147.817 107.812C144.952 107.734 143.481 109.948 143.481 114.068C143.481 118.575 144.989 120.868 147.704 120.828Z" fill="#FEFEFE"/>
<path d="M160.295 124.325C160.106 124.325 159.956 124.171 159.956 123.976L160.106 110.727L159.956 97.4788C159.956 97.2841 160.106 97.1295 160.295 97.1295H165.233C165.422 97.1295 165.572 97.2841 165.572 97.4788L165.422 110.727L165.572 123.976C165.572 124.171 165.422 124.325 165.233 124.325H160.295Z" fill="#FEFEFE"/>
<path d="M168.588 124.325C168.399 124.325 168.249 124.171 168.249 123.976L168.438 110.727L168.249 97.4788C168.249 97.2841 168.399 97.1295 168.588 97.1295H186.381C186.57 97.1295 186.72 97.2841 186.72 97.4788V101.171C186.72 101.366 186.57 101.52 186.381 101.52H174.091L173.941 107.776H185.288C185.477 107.776 185.627 107.931 185.627 108.125V111.817C185.627 112.012 185.477 112.167 185.288 112.167H173.941L174.091 119.938H186.683C186.872 119.938 187.022 120.093 187.022 120.288V123.978C187.022 124.173 186.872 124.327 186.683 124.327H168.588V124.325Z" fill="#FEFEFE"/>
<path d="M197.542 124.791C191.886 124.791 188.267 122.422 188.078 117.953C188.078 117.758 188.228 117.604 188.417 117.604H193.242C193.431 117.604 193.581 117.758 193.581 117.953C193.731 120.205 195.165 121.177 197.803 121.177C200.027 121.177 201.233 120.284 201.233 118.73C201.233 114.921 188.528 118.613 188.528 110.221C188.528 106.064 191.769 103.849 197.01 103.849C202.25 103.849 205.531 105.947 205.869 110.143C205.906 110.338 205.756 110.492 205.568 110.492H200.968C200.779 110.492 200.629 110.338 200.59 110.143C200.288 108.435 199.232 107.385 196.934 107.385C195.087 107.385 193.918 108.083 193.918 109.794C193.918 113.602 206.623 109.715 206.623 118.226C206.623 122.422 202.778 124.793 197.538 124.793L197.542 124.791Z" fill="#FEFEFE"/>
<path d="M219.897 123.586C219.897 123.781 219.747 123.974 219.595 124.052C218.503 124.442 217.258 124.713 216.052 124.713C212.771 124.713 209.643 123.002 209.643 118.457L209.68 108.433H207.494C207.305 108.433 207.155 108.278 207.155 108.083V104.664C207.155 104.469 207.305 104.315 207.494 104.315H209.68L209.643 99.6531C209.643 99.4583 209.793 99.3038 209.982 99.3038H214.996C215.185 99.3038 215.335 99.4583 215.335 99.6531L215.298 104.315H219.595C219.784 104.315 219.934 104.469 219.934 104.664V108.083C219.934 108.278 219.784 108.433 219.595 108.433H215.259L215.296 118.302C215.296 120.013 216.126 120.555 217.369 120.555C218.273 120.555 218.99 120.4 219.555 120.205C219.744 120.167 219.894 120.322 219.894 120.477V123.584L219.897 123.586Z" fill="#FEFEFE"/>
<path d="M235.842 124.325C235.653 124.325 235.503 124.171 235.503 123.976L235.579 121.994C234.221 123.703 232.299 124.715 229.848 124.715C224.345 124.715 221.44 120.208 221.44 114.379C221.44 108.551 224.682 103.927 229.961 103.927C232.375 103.927 234.258 104.821 235.579 106.453L235.466 104.666C235.466 104.471 235.616 104.317 235.805 104.317H240.857C241.046 104.317 241.195 104.471 241.195 104.666L241.083 114.341L241.195 123.976C241.195 124.171 241.046 124.325 240.857 124.325H235.842ZM231.432 120.828C234.184 120.828 235.653 118.692 235.692 114.456C235.729 110.181 234.26 107.85 231.545 107.812C228.679 107.734 227.208 109.948 227.208 114.068C227.208 118.575 228.716 120.868 231.432 120.828Z" fill="#FEFEFE"/>
<path d="M256.388 123.586C256.388 123.781 256.238 123.974 256.086 124.052C254.994 124.442 253.749 124.713 252.543 124.713C249.262 124.713 246.134 123.002 246.134 118.457L246.171 108.433H243.985C243.796 108.433 243.646 108.278 243.646 108.083V104.664C243.646 104.469 243.796 104.315 243.985 104.315H246.171L246.134 99.6531C246.134 99.4583 246.284 99.3038 246.473 99.3038H251.487C251.676 99.3038 251.826 99.4583 251.826 99.6531L251.789 104.315H256.086C256.275 104.315 256.425 104.469 256.425 104.664V108.083C256.425 108.278 256.275 108.433 256.086 108.433H251.75L251.787 118.302C251.787 120.013 252.617 120.555 253.86 120.555C254.764 120.555 255.481 120.4 256.046 120.205C256.234 120.167 256.385 120.322 256.385 120.477V123.584L256.388 123.586Z" fill="#FEFEFE"/>
<path d="M276.935 117.563C277.123 117.563 277.273 117.718 277.236 117.913C276.746 121.565 273.354 124.829 267.925 124.829C261.44 124.829 257.933 120.438 257.933 114.377C257.933 108.005 261.629 103.809 267.81 103.809C273.991 103.809 277.725 108.16 277.838 115.154C277.838 115.349 277.688 115.504 277.499 115.504H263.625C263.851 119.272 265.285 120.942 267.999 120.942C269.885 120.942 271.24 120.049 271.768 117.913C271.805 117.718 271.994 117.563 272.183 117.563H276.933H276.935ZM267.849 107.656C265.587 107.656 264.229 109.055 263.777 111.813H271.731C271.505 109.677 270.336 107.656 267.849 107.656Z" fill="#FEFEFE"/>
</g>
<defs>
<filter id="filter0_d_1_27" x="82.7033" y="0" width="121.219" height="84.0494" filterUnits="userSpaceOnUse" color-interpolation-filters="sRGB">
<feFlood flood-opacity="0" result="BackgroundImageFix"/>
<feColorMatrix in="SourceAlpha" type="matrix" values="0 0 0 0 0 0 0 0 0 0 0 0 0 0 0 0 0 0 127 0" result="hardAlpha"/>
<feOffset dy="1"/>
<feGaussianBlur stdDeviation="4"/>
<feComposite in2="hardAlpha" operator="out"/>
<feColorMatrix type="matrix" values="0 0 0 0 0 0 0 0 0 0 0 0 0 0 0 0 0 0 0.18 0"/>
<feBlend mode="normal" in2="BackgroundImageFix" result="effect1_dropShadow_1_27"/>
<feBlend mode="normal" in="SourceGraphic" in2="effect1_dropShadow_1_27" result="shape"/>
</filter>
<filter id="filter1_d_1_27" x="0.410751" y="90.1275" width="285.428" height="50.9695" filterUnits="userSpaceOnUse" color-interpolation-filters="sRGB">
<feFlood flood-opacity="0" result="BackgroundImageFix"/>
<feColorMatrix in="SourceAlpha" type="matrix" values="0 0 0 0 0 0 0 0 0 0 0 0 0 0 0 0 0 0 127 0" result="hardAlpha"/>
<feOffset dy="1"/>
<feGaussianBlur stdDeviation="4"/>
<feComposite in2="hardAlpha" operator="out"/>
<feColorMatrix type="matrix" values="0 0 0 0 0 0 0 0 0 0 0 0 0 0 0 0 0 0 0.18 0"/>
<feBlend mode="normal" in2="BackgroundImageFix" result="effect1_dropShadow_1_27"/>
<feBlend mode="normal" in="SourceGraphic" in2="effect1_dropShadow_1_27" result="shape"/>
</filter>
<linearGradient id="paint0_linear_1_27" x1="122.238" y1="35.7497" x2="165.637" y2="77.8611" gradientUnits="userSpaceOnUse">
<stop stop-color="#FEFEFE"/>
<stop offset="1" stop-color="#FEFEFE"/>
</linearGradient>
</defs>
</svg>
